<mxfile host="app.diagrams.net" agent="Mozilla/5.0 (Windows NT 10.0; Win64; x64) AppleWebKit/537.36 (KHTML, like Gecko) Chrome/134.0.0.0 Safari/537.36" version="26.2.9">
  <diagram name="Página-1" id="FR1r8_-5efVXSqGO4ymm">
    <mxGraphModel dx="1898" dy="1093" grid="1" gridSize="10" guides="1" tooltips="1" connect="1" arrows="1" fold="1" page="1" pageScale="1" pageWidth="827" pageHeight="1169" math="0" shadow="0">
      <root>
        <mxCell id="0" />
        <mxCell id="1" parent="0" />
        <mxCell id="fX0xyM7V9ehyO8kimgxT-1" value="Usuário" style="rounded=0;whiteSpace=wrap;html=1;fontSize=17;" vertex="1" parent="1">
          <mxGeometry x="350" y="20" width="120" height="60" as="geometry" />
        </mxCell>
        <mxCell id="fX0xyM7V9ehyO8kimgxT-19" style="edgeStyle=orthogonalEdgeStyle;rounded=0;orthogonalLoop=1;jettySize=auto;html=1;entryX=0;entryY=0.75;entryDx=0;entryDy=0;exitX=0.5;exitY=1;exitDx=0;exitDy=0;" edge="1" parent="1" source="fX0xyM7V9ehyO8kimgxT-2" target="fX0xyM7V9ehyO8kimgxT-6">
          <mxGeometry relative="1" as="geometry" />
        </mxCell>
        <mxCell id="fX0xyM7V9ehyO8kimgxT-2" value="Comum" style="rounded=0;whiteSpace=wrap;html=1;fontSize=17;" vertex="1" parent="1">
          <mxGeometry x="230" y="110" width="120" height="60" as="geometry" />
        </mxCell>
        <mxCell id="fX0xyM7V9ehyO8kimgxT-18" style="edgeStyle=orthogonalEdgeStyle;rounded=0;orthogonalLoop=1;jettySize=auto;html=1;entryX=1;entryY=0.75;entryDx=0;entryDy=0;" edge="1" parent="1" source="fX0xyM7V9ehyO8kimgxT-3" target="fX0xyM7V9ehyO8kimgxT-6">
          <mxGeometry relative="1" as="geometry" />
        </mxCell>
        <mxCell id="fX0xyM7V9ehyO8kimgxT-3" value="Admin" style="rounded=0;whiteSpace=wrap;html=1;fontSize=17;" vertex="1" parent="1">
          <mxGeometry x="470" y="110" width="120" height="60" as="geometry" />
        </mxCell>
        <mxCell id="fX0xyM7V9ehyO8kimgxT-60" style="edgeStyle=orthogonalEdgeStyle;rounded=0;orthogonalLoop=1;jettySize=auto;html=1;entryX=0;entryY=0.5;entryDx=0;entryDy=0;" edge="1" parent="1" source="fX0xyM7V9ehyO8kimgxT-5" target="fX0xyM7V9ehyO8kimgxT-49">
          <mxGeometry relative="1" as="geometry" />
        </mxCell>
        <mxCell id="fX0xyM7V9ehyO8kimgxT-62" style="edgeStyle=orthogonalEdgeStyle;rounded=0;orthogonalLoop=1;jettySize=auto;html=1;entryX=0.5;entryY=0;entryDx=0;entryDy=0;" edge="1" parent="1" source="fX0xyM7V9ehyO8kimgxT-5" target="fX0xyM7V9ehyO8kimgxT-24">
          <mxGeometry relative="1" as="geometry" />
        </mxCell>
        <mxCell id="fX0xyM7V9ehyO8kimgxT-77" style="edgeStyle=orthogonalEdgeStyle;rounded=0;orthogonalLoop=1;jettySize=auto;html=1;entryX=1;entryY=0.5;entryDx=0;entryDy=0;" edge="1" parent="1" source="fX0xyM7V9ehyO8kimgxT-5" target="fX0xyM7V9ehyO8kimgxT-74">
          <mxGeometry relative="1" as="geometry" />
        </mxCell>
        <mxCell id="fX0xyM7V9ehyO8kimgxT-5" value="Dashboard Principal" style="rounded=0;whiteSpace=wrap;html=1;fontSize=17;" vertex="1" parent="1">
          <mxGeometry x="354" y="300" width="120" height="60" as="geometry" />
        </mxCell>
        <mxCell id="fX0xyM7V9ehyO8kimgxT-22" style="edgeStyle=orthogonalEdgeStyle;rounded=0;orthogonalLoop=1;jettySize=auto;html=1;" edge="1" parent="1" source="fX0xyM7V9ehyO8kimgxT-6" target="fX0xyM7V9ehyO8kimgxT-5">
          <mxGeometry relative="1" as="geometry" />
        </mxCell>
        <mxCell id="fX0xyM7V9ehyO8kimgxT-6" value="Login" style="rounded=0;whiteSpace=wrap;html=1;fontSize=17;" vertex="1" parent="1">
          <mxGeometry x="354" y="200" width="120" height="60" as="geometry" />
        </mxCell>
        <mxCell id="fX0xyM7V9ehyO8kimgxT-14" value="" style="endArrow=classic;html=1;rounded=0;" edge="1" parent="1">
          <mxGeometry width="50" height="50" relative="1" as="geometry">
            <mxPoint x="490" y="60" as="sourcePoint" />
            <mxPoint x="530" y="100" as="targetPoint" />
          </mxGeometry>
        </mxCell>
        <mxCell id="fX0xyM7V9ehyO8kimgxT-15" value="" style="endArrow=classic;html=1;rounded=0;" edge="1" parent="1">
          <mxGeometry width="50" height="50" relative="1" as="geometry">
            <mxPoint x="330" y="60" as="sourcePoint" />
            <mxPoint x="290" y="100" as="targetPoint" />
          </mxGeometry>
        </mxCell>
        <mxCell id="fX0xyM7V9ehyO8kimgxT-16" value="&lt;div&gt;&lt;span style=&quot;background-color: transparent; color: light-dark(rgb(0, 0, 0), rgb(255, 255, 255));&quot;&gt;-&amp;nbsp; Criação de novo usuário&lt;/span&gt;&lt;/div&gt;&lt;div&gt;. Nome&lt;/div&gt;&lt;div&gt;. Email&lt;/div&gt;&lt;div&gt;Senha&lt;/div&gt;&lt;div&gt;. Tipo&amp;nbsp;&lt;/div&gt;&lt;div&gt;(Comum ou Admin)&amp;nbsp;&lt;/div&gt;" style="rounded=0;whiteSpace=wrap;html=1;" vertex="1" parent="1">
          <mxGeometry x="650" y="230" width="160" height="120" as="geometry" />
        </mxCell>
        <mxCell id="fX0xyM7V9ehyO8kimgxT-63" style="edgeStyle=orthogonalEdgeStyle;rounded=0;orthogonalLoop=1;jettySize=auto;html=1;entryX=0;entryY=0.5;entryDx=0;entryDy=0;" edge="1" parent="1" source="fX0xyM7V9ehyO8kimgxT-24" target="fX0xyM7V9ehyO8kimgxT-55">
          <mxGeometry relative="1" as="geometry" />
        </mxCell>
        <mxCell id="fX0xyM7V9ehyO8kimgxT-69" style="edgeStyle=orthogonalEdgeStyle;rounded=0;orthogonalLoop=1;jettySize=auto;html=1;entryX=0.5;entryY=0;entryDx=0;entryDy=0;" edge="1" parent="1" source="fX0xyM7V9ehyO8kimgxT-24" target="fX0xyM7V9ehyO8kimgxT-66">
          <mxGeometry relative="1" as="geometry" />
        </mxCell>
        <mxCell id="fX0xyM7V9ehyO8kimgxT-76" style="edgeStyle=orthogonalEdgeStyle;rounded=0;orthogonalLoop=1;jettySize=auto;html=1;entryX=1;entryY=0.75;entryDx=0;entryDy=0;" edge="1" parent="1" source="fX0xyM7V9ehyO8kimgxT-24" target="fX0xyM7V9ehyO8kimgxT-74">
          <mxGeometry relative="1" as="geometry" />
        </mxCell>
        <mxCell id="fX0xyM7V9ehyO8kimgxT-24" value="Gerenciamento de Produtos" style="rounded=0;whiteSpace=wrap;html=1;fontSize=17;" vertex="1" parent="1">
          <mxGeometry x="354" y="430" width="120" height="60" as="geometry" />
        </mxCell>
        <mxCell id="fX0xyM7V9ehyO8kimgxT-27" value="&lt;br&gt;&lt;div&gt;- Editar&lt;/div&gt;&lt;div&gt;- Deletar&lt;/div&gt;" style="rounded=0;whiteSpace=wrap;html=1;fontSize=17;" vertex="1" parent="1">
          <mxGeometry x="670" y="415" width="120" height="90" as="geometry" />
        </mxCell>
        <mxCell id="fX0xyM7V9ehyO8kimgxT-34" value="Adicionar" style="rounded=0;whiteSpace=wrap;html=1;fontSize=17;" vertex="1" parent="1">
          <mxGeometry x="252.5" y="560" width="120" height="40" as="geometry" />
        </mxCell>
        <mxCell id="fX0xyM7V9ehyO8kimgxT-38" value="" style="edgeStyle=orthogonalEdgeStyle;rounded=0;orthogonalLoop=1;jettySize=auto;html=1;" edge="1" parent="1" source="fX0xyM7V9ehyO8kimgxT-24" target="fX0xyM7V9ehyO8kimgxT-37">
          <mxGeometry relative="1" as="geometry">
            <mxPoint x="200" y="550" as="targetPoint" />
            <mxPoint x="354" y="460" as="sourcePoint" />
          </mxGeometry>
        </mxCell>
        <mxCell id="fX0xyM7V9ehyO8kimgxT-41" value="" style="edgeStyle=orthogonalEdgeStyle;rounded=0;orthogonalLoop=1;jettySize=auto;html=1;" edge="1" parent="1" source="fX0xyM7V9ehyO8kimgxT-37" target="fX0xyM7V9ehyO8kimgxT-40">
          <mxGeometry relative="1" as="geometry" />
        </mxCell>
        <mxCell id="fX0xyM7V9ehyO8kimgxT-37" value="Historico" style="rounded=0;whiteSpace=wrap;html=1;fontSize=17;" vertex="1" parent="1">
          <mxGeometry x="41.5" y="570" width="120" height="40" as="geometry" />
        </mxCell>
        <mxCell id="fX0xyM7V9ehyO8kimgxT-40" value="- Movimentações (Entrada e saída)&lt;div&gt;- Grafico de movimentações&lt;/div&gt;&lt;div&gt;- Estoque critico&lt;/div&gt;" style="rounded=0;whiteSpace=wrap;html=1;fontSize=17;" vertex="1" parent="1">
          <mxGeometry x="20" y="655" width="163" height="100" as="geometry" />
        </mxCell>
        <mxCell id="fX0xyM7V9ehyO8kimgxT-44" value="- Nome&lt;div&gt;- Quantidade&lt;/div&gt;&lt;div&gt;- Fabricante&lt;/div&gt;&lt;div&gt;- Descrição&lt;/div&gt;&lt;div&gt;- Preço&lt;/div&gt;" style="rounded=0;whiteSpace=wrap;html=1;fontSize=17;" vertex="1" parent="1">
          <mxGeometry x="227" y="645" width="163" height="110" as="geometry" />
        </mxCell>
        <mxCell id="fX0xyM7V9ehyO8kimgxT-47" style="edgeStyle=orthogonalEdgeStyle;rounded=0;orthogonalLoop=1;jettySize=auto;html=1;entryX=0.525;entryY=0;entryDx=0;entryDy=0;entryPerimeter=0;" edge="1" parent="1" source="fX0xyM7V9ehyO8kimgxT-34" target="fX0xyM7V9ehyO8kimgxT-44">
          <mxGeometry relative="1" as="geometry" />
        </mxCell>
        <mxCell id="fX0xyM7V9ehyO8kimgxT-61" style="edgeStyle=orthogonalEdgeStyle;rounded=0;orthogonalLoop=1;jettySize=auto;html=1;entryX=0;entryY=0.5;entryDx=0;entryDy=0;" edge="1" parent="1" source="fX0xyM7V9ehyO8kimgxT-49" target="fX0xyM7V9ehyO8kimgxT-16">
          <mxGeometry relative="1" as="geometry" />
        </mxCell>
        <mxCell id="fX0xyM7V9ehyO8kimgxT-49" value="Admin" style="rhombus;whiteSpace=wrap;html=1;fontSize=17;" vertex="1" parent="1">
          <mxGeometry x="520" y="290" width="80" height="80" as="geometry" />
        </mxCell>
        <mxCell id="fX0xyM7V9ehyO8kimgxT-64" style="edgeStyle=orthogonalEdgeStyle;rounded=0;orthogonalLoop=1;jettySize=auto;html=1;entryX=0;entryY=0.5;entryDx=0;entryDy=0;" edge="1" parent="1" source="fX0xyM7V9ehyO8kimgxT-55" target="fX0xyM7V9ehyO8kimgxT-27">
          <mxGeometry relative="1" as="geometry" />
        </mxCell>
        <mxCell id="fX0xyM7V9ehyO8kimgxT-55" value="Admin" style="rhombus;whiteSpace=wrap;html=1;fontSize=17;" vertex="1" parent="1">
          <mxGeometry x="510" y="420" width="80" height="80" as="geometry" />
        </mxCell>
        <mxCell id="fX0xyM7V9ehyO8kimgxT-72" style="edgeStyle=orthogonalEdgeStyle;rounded=0;orthogonalLoop=1;jettySize=auto;html=1;" edge="1" parent="1" source="fX0xyM7V9ehyO8kimgxT-66">
          <mxGeometry relative="1" as="geometry">
            <mxPoint x="474.5" y="640" as="targetPoint" />
          </mxGeometry>
        </mxCell>
        <mxCell id="fX0xyM7V9ehyO8kimgxT-66" value="Movimentar" style="rounded=0;whiteSpace=wrap;html=1;fontSize=17;" vertex="1" parent="1">
          <mxGeometry x="414.5" y="560" width="120" height="40" as="geometry" />
        </mxCell>
        <mxCell id="fX0xyM7V9ehyO8kimgxT-70" style="edgeStyle=orthogonalEdgeStyle;rounded=0;orthogonalLoop=1;jettySize=auto;html=1;entryX=0.663;entryY=-0.039;entryDx=0;entryDy=0;entryPerimeter=0;" edge="1" parent="1" source="fX0xyM7V9ehyO8kimgxT-24" target="fX0xyM7V9ehyO8kimgxT-34">
          <mxGeometry relative="1" as="geometry" />
        </mxCell>
        <mxCell id="fX0xyM7V9ehyO8kimgxT-71" value="-Tipo de movimentação (Entrada/saída)&lt;div&gt;- Quantidade&lt;/div&gt;" style="rounded=0;whiteSpace=wrap;html=1;fontSize=17;" vertex="1" parent="1">
          <mxGeometry x="420" y="645" width="163" height="110" as="geometry" />
        </mxCell>
        <mxCell id="fX0xyM7V9ehyO8kimgxT-74" value="Filtragem de Produtos" style="rounded=0;whiteSpace=wrap;html=1;fontSize=17;" vertex="1" parent="1">
          <mxGeometry x="132.5" y="340" width="120" height="60" as="geometry" />
        </mxCell>
      </root>
    </mxGraphModel>
  </diagram>
</mxfile>
